HIERARCHY
ROOT newVegas:Hips
{
	OFFSET 0.000000 96.479958 0.000000
	CHANNELS 6 Xposition Yposition Zposition Xrotation Yrotation Zrotation
	JOINT newVegas:Pelvis
	{
		OFFSET 0.000000 0.000000 0.000000
		CHANNELS 3 Xrotation Yrotation Zrotation
		JOINT newVegas:LeftUpLeg
		{
			OFFSET 18.735201 -5.666702 -4.541200
			CHANNELS 3 Xrotation Yrotation Zrotation
			JOINT newVegas:LeftLeg
			{
				OFFSET -0.021200 -31.938179 0.493100
				CHANNELS 3 Xrotation Yrotation Zrotation
				JOINT newVegas:LeftFoot
				{
					OFFSET 0.021200 -31.938179 -4.336299
					CHANNELS 3 Xrotation Yrotation Zrotation
					JOINT newVegas:LeftToeBase
					{
						OFFSET 0.943001 -26.722000 15.023500
						CHANNELS 3 Xrotation Yrotation Zrotation
						End Site
						{
							OFFSET 0.000000 30.670183 0.000000
						}
					}
				}
				JOINT newVegas:Left_PantLeg
				{
					OFFSET 0.663870 -9.044666 -1.108900
					CHANNELS 3 Xrotation Yrotation Zrotation
					End Site
					{
						OFFSET 1.415995 20.635357 0.000000
					}
				}
			}
		}
		JOINT newVegas:RightUpLeg
		{
			OFFSET -18.735201 -5.666702 -4.541200
			CHANNELS 3 Xrotation Yrotation Zrotation
			JOINT newVegas:RightLeg
			{
				OFFSET 0.018946 -31.938133 0.493100
				CHANNELS 3 Xrotation Yrotation Zrotation
				JOINT newVegas:RightFoot
				{
					OFFSET -0.018946 -31.938126 -4.336299
					CHANNELS 3 Xrotation Yrotation Zrotation
					JOINT newVegas:RightToeBase
					{
						OFFSET -0.943001 -26.722004 15.023500
						CHANNELS 3 Xrotation Yrotation Zrotation
						End Site
						{
							OFFSET 0.000000 30.670187 0.000000
						}
					}
				}
				JOINT newVegas:Right_PantLeg
				{
					OFFSET -0.661674 -9.044716 -1.108900
					CHANNELS 3 Xrotation Yrotation Zrotation
					End Site
					{
						OFFSET -1.415958 20.635269 0.000000
					}
				}
			}
		}
	}
	JOINT newVegas:Spine
	{
		OFFSET 0.000000 10.199997 -0.299500
		CHANNELS 3 Xrotation Yrotation Zrotation
		JOINT newVegas:Spine1
		{
			OFFSET 0.000000 11.900002 -1.516600
			CHANNELS 3 Xrotation Yrotation Zrotation
			JOINT newVegas:Spine2
			{
				OFFSET 0.000000 13.600006 -2.842500
				CHANNELS 3 Xrotation Yrotation Zrotation
				JOINT newVegas:Neck
				{
					OFFSET 0.000000 9.624100 -2.890100
					CHANNELS 3 Xrotation Yrotation Zrotation
					JOINT newVegas:Head
					{
						OFFSET 0.000000 14.068802 -1.351900
						CHANNELS 3 Xrotation Yrotation Zrotation
						JOINT newVegas:Hair_Back
						{
							OFFSET 0.000000 3.231903 -17.524799
							CHANNELS 3 Xrotation Yrotation Zrotation
							End Site
							{
								OFFSET 0.000000 19.849884 0.000000
							}
						}
						JOINT newVegas:Hair_Front
						{
							OFFSET 0.000000 31.260406 4.573800
							CHANNELS 3 Xrotation Yrotation Zrotation
							JOINT newVegas:Hair_Front1
							{
								OFFSET 0.000000 2.284103 11.993300
								CHANNELS 3 Xrotation Yrotation Zrotation
								JOINT newVegas:Hair_Front2
								{
									OFFSET 0.000000 2.284103 11.993300
									CHANNELS 3 Xrotation Yrotation Zrotation
									End Site
									{
										OFFSET 0.000000 12.208862 0.000000
									}
								}
							}
						}
						JOINT newVegas:Jowel
						{
							OFFSET 0.000000 -7.458206 6.864100
							CHANNELS 3 Xrotation Yrotation Zrotation
							End Site
							{
								OFFSET 0.000000 19.849884 0.000000
							}
						}
					}
				}
				JOINT newVegas:LeftShoulder
				{
					OFFSET 15.263000 10.923401 -0.547700
					CHANNELS 3 Xrotation Yrotation Zrotation
					JOINT newVegas:LeftArm
					{
						OFFSET 25.438599 -2.830597 -13.032500
						CHANNELS 3 Xrotation Yrotation Zrotation
						JOINT newVegas:LeftForeArm
						{
							OFFSET 29.960503 0.000000 0.000000
							CHANNELS 3 Xrotation Yrotation Zrotation
							JOINT newVegas:LeftHand
							{
								OFFSET 27.849251 0.000000 0.000000
								CHANNELS 3 Xrotation Yrotation Zrotation
								JOINT newVegas:LeftHandThumb1
								{
									OFFSET 4.487587 -3.305161 6.305391
									CHANNELS 3 Xrotation Yrotation Zrotation
									JOINT newVegas:LeftHandThumb2
									{
										OFFSET 5.480453 -3.164139 3.164143
										CHANNELS 3 Xrotation Yrotation Zrotation
										JOINT newVegas:LeftHandThumb3
										{
											OFFSET 5.159721 -2.978973 2.978967
											CHANNELS 3 Xrotation Yrotation Zrotation
											End Site
											{
												OFFSET 2.494507 5.926697 1.738678
											}
										}
									}
								}
								JOINT newVegas:LeftHandIndex1
								{
									OFFSET 18.578728 -0.527832 5.208049
									CHANNELS 3 Xrotation Yrotation Zrotation
									JOINT newVegas:LeftHandIndex2
									{
										OFFSET 3.192009 0.000000 0.000000
										CHANNELS 3 Xrotation Yrotation Zrotation
										JOINT newVegas:LeftHandIndex3
										{
											OFFSET 3.835129 0.000000 0.000000
											CHANNELS 3 Xrotation Yrotation Zrotation
											End Site
											{
												OFFSET -0.034599 3.816971 0.371180
											}
										}
									}
								}
								JOINT newVegas:LeftHandMiddle1
								{
									OFFSET 18.476105 0.000000 0.000000
									CHANNELS 3 Xrotation Yrotation Zrotation
									JOINT newVegas:LeftHandMiddle2
									{
										OFFSET 3.324875 0.000000 0.000000
										CHANNELS 3 Xrotation Yrotation Zrotation
										JOINT newVegas:LeftHandMiddle3
										{
											OFFSET 4.596550 0.000000 0.000000
											CHANNELS 3 Xrotation Yrotation Zrotation
											End Site
											{
												OFFSET 0.057701 4.578827 0.399218
											}
										}
									}
								}
								JOINT newVegas:LeftHandRing1
								{
									OFFSET 17.732719 0.121887 -4.201567
									CHANNELS 3 Xrotation Yrotation Zrotation
									JOINT newVegas:LeftHandRing2
									{
										OFFSET 2.733170 0.000000 0.000000
										CHANNELS 3 Xrotation Yrotation Zrotation
										JOINT newVegas:LeftHandRing3
										{
											OFFSET 3.178268 0.000000 0.000000
											CHANNELS 3 Xrotation Yrotation Zrotation
											End Site
											{
												OFFSET 0.119102 3.170624 0.185394
											}
										}
									}
								}
								JOINT newVegas:LeftHandPinky1
								{
									OFFSET 15.989624 -0.606689 -7.535461
									CHANNELS 3 Xrotation Yrotation Zrotation
									JOINT newVegas:LeftHandPinky2
									{
										OFFSET 2.538986 0.000000 0.000000
										CHANNELS 3 Xrotation Yrotation Zrotation
										JOINT newVegas:LeftHandPinky3
										{
											OFFSET 2.593102 0.000000 0.000000
											CHANNELS 3 Xrotation Yrotation Zrotation
											End Site
											{
												OFFSET -0.150902 2.584198 0.152708
											}
										}
									}
								}
							}
							JOINT newVegas:Left_Sleeve
							{
								OFFSET 0.267448 -0.649796 0.577675
								CHANNELS 3 Xrotation Yrotation Zrotation
								End Site
								{
									OFFSET 0.000000 15.991241 0.000000
								}
							}
							JOINT newVegas:Left_CapeC
							{
								OFFSET 15.715958 -8.608795 -6.935905
								CHANNELS 3 Xrotation Yrotation Zrotation
								JOINT newVegas:Left_CapeC1
								{
									OFFSET 0.000000 -8.688499 0.000000
									CHANNELS 3 Xrotation Yrotation Zrotation
									End Site
									{
										OFFSET 0.000000 8.688499 0.000000
									}
								}
							}
						}
						JOINT newVegas:Left_CapeB
						{
							OFFSET 26.118385 -8.608795 -7.079235
							CHANNELS 3 Xrotation Yrotation Zrotation
							JOINT newVegas:Left_CapeB1
							{
								OFFSET 0.000000 -8.688499 0.000000
								CHANNELS 3 Xrotation Yrotation Zrotation
								End Site
								{
									OFFSET 0.000000 8.688499 0.000000
								}
							}
						}
						JOINT newVegas:Left_CapeA
						{
							OFFSET 5.115639 -8.608795 -10.395809
							CHANNELS 3 Xrotation Yrotation Zrotation
							JOINT newVegas:Left_CapeA1
							{
								OFFSET 0.000000 -8.688499 0.000000
								CHANNELS 3 Xrotation Yrotation Zrotation
								End Site
								{
									OFFSET 0.000000 8.688499 0.000000
								}
							}
						}
					}
				}
				JOINT newVegas:RightShoulder
				{
					OFFSET -15.263000 10.923401 -0.547700
					CHANNELS 3 Xrotation Yrotation Zrotation
					JOINT newVegas:RightArm
					{
						OFFSET -25.438599 -2.830597 -13.032500
						CHANNELS 3 Xrotation Yrotation Zrotation
						JOINT newVegas:RightForeArm
						{
							OFFSET -29.960503 0.000000 0.000000
							CHANNELS 3 Xrotation Yrotation Zrotation
							JOINT newVegas:RightHand
							{
								OFFSET -27.849251 0.000000 0.000000
								CHANNELS 3 Xrotation Yrotation Zrotation
								JOINT newVegas:RightHandThumb1
								{
									OFFSET -4.487587 -3.305161 6.305391
									CHANNELS 3 Xrotation Yrotation Zrotation
									JOINT newVegas:RightHandThumb2
									{
										OFFSET -5.480453 -3.164139 3.164143
										CHANNELS 3 Xrotation Yrotation Zrotation
										JOINT newVegas:RightHandThumb3
										{
											OFFSET -5.159721 -2.978973 2.978967
											CHANNELS 3 Xrotation Yrotation Zrotation
											End Site
											{
												OFFSET -2.494507 5.926697 1.738678
											}
										}
									}
								}
								JOINT newVegas:RightHandIndex1
								{
									OFFSET -18.578728 -0.527832 5.208049
									CHANNELS 3 Xrotation Yrotation Zrotation
									JOINT newVegas:RightHandIndex2
									{
										OFFSET -3.192009 0.000000 0.000000
										CHANNELS 3 Xrotation Yrotation Zrotation
										JOINT newVegas:RightHandIndex3
										{
											OFFSET -3.835129 0.000000 0.000000
											CHANNELS 3 Xrotation Yrotation Zrotation
											End Site
											{
												OFFSET 0.034599 3.816971 0.371180
											}
										}
									}
								}
								JOINT newVegas:RightHandMiddle1
								{
									OFFSET -18.476105 0.000000 0.000000
									CHANNELS 3 Xrotation Yrotation Zrotation
									JOINT newVegas:RightHandMiddle2
									{
										OFFSET -3.324875 0.000000 0.000000
										CHANNELS 3 Xrotation Yrotation Zrotation
										JOINT newVegas:RightHandMiddle3
										{
											OFFSET -4.596550 0.000000 0.000000
											CHANNELS 3 Xrotation Yrotation Zrotation
											End Site
											{
												OFFSET -0.057701 4.578827 0.399218
											}
										}
									}
								}
								JOINT newVegas:RightHandRing1
								{
									OFFSET -17.732719 0.121887 -4.201567
									CHANNELS 3 Xrotation Yrotation Zrotation
									JOINT newVegas:RightHandRing2
									{
										OFFSET -2.733170 0.000000 0.000000
										CHANNELS 3 Xrotation Yrotation Zrotation
										JOINT newVegas:RightHandRing3
										{
											OFFSET -3.178268 0.000000 0.000000
											CHANNELS 3 Xrotation Yrotation Zrotation
											End Site
											{
												OFFSET -0.119102 3.170624 0.185394
											}
										}
									}
								}
								JOINT newVegas:RightHandPinky1
								{
									OFFSET -15.989624 -0.606689 -7.535461
									CHANNELS 3 Xrotation Yrotation Zrotation
									JOINT newVegas:RightHandPinky2
									{
										OFFSET -2.538986 0.000000 0.000000
										CHANNELS 3 Xrotation Yrotation Zrotation
										JOINT newVegas:RightHandPinky3
										{
											OFFSET -2.593102 0.000000 0.000000
											CHANNELS 3 Xrotation Yrotation Zrotation
											End Site
											{
												OFFSET 0.150902 2.584198 0.152708
											}
										}
									}
								}
							}
							JOINT newVegas:Right_CapeC
							{
								OFFSET -15.715958 -8.608795 -6.935905
								CHANNELS 3 Xrotation Yrotation Zrotation
								JOINT newVegas:Right_CapeC1
								{
									OFFSET 0.000000 -8.688499 0.000000
									CHANNELS 3 Xrotation Yrotation Zrotation
									End Site
									{
										OFFSET 0.000000 8.688499 0.000000
									}
								}
							}
							JOINT newVegas:Right_Sleeve
							{
								OFFSET -0.267448 -0.649994 0.577675
								CHANNELS 3 Xrotation Yrotation Zrotation
								End Site
								{
									OFFSET 0.000000 15.991302 0.000000
								}
							}
						}
						JOINT newVegas:Right_CapeA
						{
							OFFSET -5.115540 -8.608795 -10.395824
							CHANNELS 3 Xrotation Yrotation Zrotation
							JOINT newVegas:Right_CapeA1
							{
								OFFSET 0.000000 -8.688499 0.000000
								CHANNELS 3 Xrotation Yrotation Zrotation
								End Site
								{
									OFFSET 0.000000 8.688499 0.000000
								}
							}
						}
						JOINT newVegas:Right_CapeB
						{
							OFFSET -26.118187 -8.608795 -7.079266
							CHANNELS 3 Xrotation Yrotation Zrotation
							JOINT newVegas:Right_CapeB1
							{
								OFFSET 0.000000 -8.688499 0.000000
								CHANNELS 3 Xrotation Yrotation Zrotation
								End Site
								{
									OFFSET 0.000000 8.688499 0.000000
								}
							}
						}
					}
				}
				JOINT newVegas:Left_Collar
				{
					OFFSET 18.625099 8.655502 8.828100
					CHANNELS 3 Xrotation Yrotation Zrotation
					JOINT newVegas:Left_Collar1
					{
						OFFSET 14.783401 10.540405 -1.259500
						CHANNELS 3 Xrotation Yrotation Zrotation
						End Site
						{
							OFFSET 0.000000 18.199875 0.000000
						}
					}
				}
				JOINT newVegas:Collar_Back
				{
					OFFSET 0.000000 15.630707 -20.132601
					CHANNELS 3 Xrotation Yrotation Zrotation
					End Site
					{
						OFFSET 0.000000 22.523010 0.000000
					}
				}
				JOINT newVegas:Left_Peck
				{
					OFFSET 17.239599 -5.132599 25.482599
					CHANNELS 3 Xrotation Yrotation Zrotation
					End Site
					{
						OFFSET 0.000000 22.523010 0.000000
					}
				}
				JOINT newVegas:Right_Peck
				{
					OFFSET -17.239599 -5.132202 25.482599
					CHANNELS 3 Xrotation Yrotation Zrotation
					End Site
					{
						OFFSET 0.000000 22.523010 0.000000
					}
				}
				JOINT newVegas:Right_Collar
				{
					OFFSET -18.625099 8.655792 8.828100
					CHANNELS 3 Xrotation Yrotation Zrotation
					JOINT newVegas:Right_Collar1
					{
						OFFSET -14.783401 10.539993 -1.259500
						CHANNELS 3 Xrotation Yrotation Zrotation
						End Site
						{
							OFFSET 0.000000 18.199631 0.000000
						}
					}
				}
			}
		}
		JOINT newVegas:Belly
		{
			OFFSET 0.000000 -6.540398 9.014299
			CHANNELS 3 Xrotation Yrotation Zrotation
			End Site
			{
				OFFSET 0.000000 11.566666 0.000000
			}
		}
	}
	JOINT newVegas:ElvisFacialAnim_Joint
	{
		OFFSET 1.000000 -95.330101 -8.825800
		CHANNELS 3 Xrotation Yrotation Zrotation
		End Site
		{
			OFFSET 0.000000 35.315800 0.000000
		}
	}
}
MOTION
Frames: 4
Frame Time: 0.016667
-5.415224 90.576202 11.016224 170.227288 -60.409820 167.225953 0.000000 0.000000 0.000000 -1.718983 11.647205 20.832393 22.793154 20.920811 1.861922 -10.890761 8.614838 -29.868964 -0.000000 -0.000001 0.000000 0.000003 -0.000000 0.000001 -29.996647 -17.728944 -17.909272 29.025558 -16.288133 3.005291 -3.355420 -0.613082 9.946649 -0.000000 -0.000000 -0.000000 -0.000000 -0.000000 -0.000001 10.606785 -1.000154 -0.086561 -2.398482 -2.056337 2.718429 -2.356986 -1.768261 2.869752 -0.657295 3.995744 0.662270 -0.657291 3.995755 0.662272 0.000000 -0.000001 0.000000 -0.657301 3.995742 0.662274 -0.657227 3.995746 0.662264 -0.000001 0.000001 -0.000000 0.000000 -0.000001 0.000000 0.705977 3.275487 -11.637329 -4.210786 -8.950366 -59.610592 5.910700 -15.225789 -6.974028 -0.347279 0.742996 15.812378 -4.200358 10.157398 11.960018 6.085768 10.556454 -0.157860 0.000003 0.000001 -0.000003 2.131776 -0.392590 -13.293930 -0.004691 0.197238 -18.934970 -0.000001 -0.000000 0.000001 -1.008611 1.345603 -17.617314 0.069213 0.461230 -24.715287 -0.000003 -0.000001 -0.000001 -2.701879 4.172402 -17.242659 -0.035255 0.237673 -29.248625 0.000002 0.000001 -0.000001 -4.558676 4.536651 -26.611568 0.028885 0.178533 -30.761051 0.000001 0.000000 0.000001 -0.000001 0.000000 0.000000 -0.000001 0.000000 0.000000 -0.000002 0.000000 0.000000 0.000002 0.000000 -0.000000 0.000002 0.000000 -0.000000 0.000002 0.000000 -0.000000 0.000000 0.000000 -0.000000 0.703464 1.524169 16.490404 17.133156 25.354794 44.976236 15.517505 24.279248 -5.951852 -24.526019 1.149795 -17.348508 -0.473533 -9.226578 -6.063024 7.388312 -11.608399 1.218095 0.000001 -0.000001 0.000001 2.309456 -3.333402 8.546108 0.013948 -0.262618 18.590061 -0.000000 0.000001 -0.000001 -1.980196 -5.331751 13.722411 0.108083 -0.649751 26.760649 0.000001 -0.000001 -0.000001 -4.943419 -9.642944 11.063727 -0.035466 -0.347566 32.710937 -0.000001 0.000004 0.000000 -6.499153 -10.799794 23.445984 0.059686 -0.257513 34.143276 -0.000002 0.000002 0.000001 -0.000001 0.000000 -0.000000 -0.000001 0.000001 0.000000 -0.000001 0.000001 0.000001 0.000000 -0.000001 -0.000001 0.000000 -0.000001 0.000001 0.000000 -0.000001 -0.000001 0.000000 -0.000001 0.000001 0.000001 0.000001 0.000000 0.000001 0.000001 0.000000 0.000001 0.000001 0.000000 0.000001 0.000001 0.000000 0.000001 0.000001 0.000000 0.000001 0.000001 0.000000 0.000001 0.000001 0.000000 0.000001 0.000000 0.000001 0.000000 0.000000 0.000000 
-5.254373 90.374504 9.633633 170.555028 -58.634121 167.641160 0.000000 -0.000002 0.000000 -1.105262 11.276413 22.001489 23.106943 22.193112 1.957882 -7.905108 8.520761 -32.700542 0.000001 0.000000 -0.000000 0.000001 -0.000001 -0.000002 -32.253851 -21.089206 -17.855023 30.146696 -12.497779 1.971282 -3.716280 0.393062 8.686430 -0.000000 0.000001 -0.000000 0.000001 0.000001 -0.000000 10.501419 -1.099956 -0.114468 -2.304557 -2.290403 3.051410 -2.253755 -1.967693 3.217101 -0.720966 3.632726 0.444598 -0.720978 3.632722 0.444595 -0.000000 0.000002 -0.000000 -0.720889 3.632696 0.444598 -0.721032 3.632786 0.444592 -0.000000 -0.000001 0.000000 -0.000000 0.000002 -0.000000 0.768061 3.463239 -12.577565 -3.044087 -9.903320 -59.428315 7.177351 -16.260064 -6.053560 -3.592297 1.052243 15.956445 -4.274179 10.467626 11.892679 5.838991 10.360603 0.041998 0.000003 0.000000 0.000001 2.051716 -0.987328 -14.446072 -0.008080 0.184423 -19.251009 -0.000004 -0.000001 0.000000 -0.876461 0.677747 -18.735042 0.063319 0.418318 -24.711906 0.000003 0.000001 -0.000001 -2.394417 3.204067 -18.922862 -0.032547 0.215852 -29.133410 0.000001 -0.000002 -0.000002 -4.267623 3.447780 -27.868205 0.025616 0.162030 -30.809822 0.000001 0.000000 -0.000001 -0.000003 0.000000 -0.000000 -0.000003 0.000000 -0.000000 -0.000004 0.000001 -0.000000 -0.000003 0.000001 -0.000001 -0.000003 0.000001 -0.000000 -0.000003 0.000001 -0.000001 -0.000004 0.000002 -0.000001 0.701263 1.355158 15.823433 16.534493 25.640262 45.312711 15.474306 24.341829 -5.985872 -24.226855 1.766192 -17.288054 -0.475929 -9.284861 -6.057578 7.374018 -11.607333 1.199331 0.000001 -0.000001 0.000001 2.297458 -3.261841 8.600795 0.014288 -0.263295 18.582595 -0.000001 -0.000000 -0.000001 -1.979940 -5.246760 13.763549 0.107330 -0.646741 26.717315 -0.000001 -0.000000 -0.000001 -4.937374 -9.523903 11.140133 -0.035783 -0.348095 32.646931 -0.000005 0.000001 -0.000000 -6.512588 -10.659446 23.476291 0.059901 -0.258239 34.082880 0.000002 -0.000000 -0.000003 0.000000 -0.000000 -0.000002 -0.000002 0.000000 -0.000003 0.000000 -0.000000 -0.000001 -0.000001 0.000000 -0.000001 -0.000000 0.000000 -0.000001 -0.000001 0.000000 -0.000001 -0.000000 -0.000000 0.000001 0.000000 0.000000 0.000000 0.000000 0.000000 0.000000 0.000000 0.000000 0.000000 0.000000 0.000000 0.000000 0.000000 0.000000 0.000000 0.000000 0.000000 0.000000 0.000000 0.000000 0.000000 -0.000001 -0.000001 0.000000 0.000000 -0.000002 0.000000 
-5.094303 90.195023 8.265984 171.015806 -56.974651 168.130311 0.000000 0.000000 0.000000 -0.878345 11.302641 23.338533 23.880855 22.975590 2.023026 -5.041063 8.088897 -35.068148 0.000001 0.000001 0.000000 -0.000000 0.000000 0.000001 -33.781651 -23.282320 -17.382063 31.297942 -9.788145 1.049297 -4.168334 1.154407 7.619580 -0.000001 -0.000001 -0.000000 -0.000000 -0.000001 -0.000000 10.604386 -1.210558 0.007771 -2.282223 -2.483309 3.172532 -2.225454 -2.139751 3.353372 -0.802624 3.263771 0.349953 -0.802610 3.263760 0.349956 -0.000001 0.000002 0.000000 -0.802621 3.263805 0.349950 -0.802628 3.263746 0.349960 -0.000000 0.000000 0.000000 -0.000001 0.000002 -0.000000 0.793941 3.860548 -12.834927 -2.590068 -10.725965 -59.685301 6.796633 -15.986959 -5.978531 -4.516845 0.869641 16.178116 -4.350505 10.787271 11.824451 5.585214 10.158487 0.246099 -0.000000 -0.000001 -0.000001 1.949229 -1.594983 -15.631609 -0.011630 0.171272 -19.576157 -0.000002 -0.000001 -0.000001 -0.762997 -0.013267 -19.880387 0.057185 0.374152 -24.708059 0.000002 0.000000 0.000000 -2.128876 2.191437 -20.636100 -0.029279 0.193445 -29.015569 -0.000003 -0.000001 0.000001 -4.009871 2.316282 -29.144229 0.022203 0.145130 -30.860974 -0.000000 -0.000002 0.000000 -0.000003 0.000001 -0.000001 -0.000003 0.000001 -0.000001 -0.000003 0.000001 -0.000001 -0.000003 -0.000001 -0.000000 -0.000003 0.000000 0.000000 -0.000003 -0.000001 -0.000000 -0.000004 0.000000 -0.000001 0.708321 1.125617 15.555423 16.276322 26.099155 45.427626 15.667838 24.549520 -6.236645 -23.970025 2.169566 -17.977345 -0.478566 -9.343097 -6.052161 7.359750 -11.606344 1.180560 0.000000 0.000000 -0.000002 2.285647 -3.191675 8.655811 0.014422 -0.263783 18.575589 0.000001 0.000000 -0.000000 -1.980048 -5.161947 13.801829 0.106590 -0.643581 26.672604 0.000002 0.000001 0.000001 -4.933549 -9.403516 11.210511 -0.036018 -0.348465 32.579183 -0.000001 0.000001 -0.000000 -6.528596 -10.515639 23.497374 0.059941 -0.258718 34.016091 -0.000002 0.000002 -0.000001 0.000001 -0.000001 -0.000000 0.000001 0.000000 0.000001 0.000002 -0.000001 -0.000001 -0.000001 0.000001 0.000000 -0.000001 0.000001 0.000001 -0.000001 0.000001 0.000000 -0.000001 0.000001 0.000001 -0.000000 -0.000003 0.000000 -0.000000 -0.000003 0.000000 -0.000000 -0.000003 0.000000 -0.000000 -0.000003 0.000000 -0.000000 -0.000003 0.000000 -0.000000 -0.000003 0.000000 -0.000000 -0.000003 0.000000 0.000000 0.000001 -0.000000 0.000000 0.000000 0.000000 
-4.909590 90.023521 6.797297 171.991827 -55.166321 168.929771 -0.000000 0.000002 -0.000000 -0.572618 11.846787 24.804626 24.921735 23.571278 2.066944 -2.560316 7.418447 -36.938261 0.000001 0.000000 0.000000 0.000001 0.000000 0.000002 -34.176535 -23.370585 -16.180006 32.487378 -8.458995 0.664380 -4.290837 1.352073 7.089840 -0.000000 0.000002 0.000000 -0.000000 -0.000000 -0.000001 11.009324 -1.250198 0.642532 -2.311409 -2.458905 2.656138 -2.266520 -2.142672 2.841964 -0.874976 2.833504 0.539656 -0.874960 2.833525 0.539681 -0.000000 0.000001 0.000000 -0.874974 2.833615 0.539638 -0.874985 2.833454 0.539671 -0.000000 0.000001 0.000001 -0.000000 0.000001 0.000000 0.698518 3.486603 -11.418156 -2.788107 -10.705280 -61.013581 6.324321 -14.736739 -5.900933 -4.856892 0.224937 16.321946 -4.428137 11.111383 11.756503 5.328291 9.953009 0.451387 -0.000001 -0.000003 -0.000005 1.824248 -2.206771 -16.833157 -0.015534 0.158005 -19.905615 0.000001 0.000000 0.000000 -0.671704 -0.717650 -21.035729 0.051041 0.329374 -24.704154 -0.000000 -0.000002 -0.000003 -1.913176 1.149656 -22.356131 -0.025950 0.170682 -28.896666 0.000002 0.000001 0.000002 -3.792510 1.158822 -30.419723 0.018541 0.127868 -30.913528 -0.000001 0.000002 0.000003 0.000001 -0.000000 0.000001 0.000001 -0.000000 0.000001 0.000001 -0.000000 0.000001 0.000001 -0.000002 -0.000000 0.000001 -0.000002 -0.000001 0.000001 -0.000002 -0.000000 -0.000000 -0.000001 -0.000001 0.748265 0.713205 16.348351 16.070860 26.382591 45.353532 15.509613 24.754767 -6.377437 -23.526481 2.543092 -18.509819 -0.481023 -9.401268 -6.046670 7.345458 -11.605466 1.161676 -0.000000 -0.000001 0.000001 2.274406 -3.123217 8.711379 0.014448 -0.263999 18.568817 -0.000000 0.000001 -0.000000 -1.980336 -5.077272 13.837596 0.105866 -0.640498 26.625884 0.000001 0.000000 0.000001 -4.930949 -9.281443 11.275152 -0.036152 -0.348587 32.507473 -0.000001 -0.000001 -0.000001 -6.546910 -10.368722 23.509617 0.059885 -0.258958 33.943335 0.000001 -0.000004 0.000001 -0.000001 -0.000000 0.000000 -0.000001 -0.000001 0.000000 -0.000000 -0.000000 0.000000 -0.000000 0.000001 0.000001 -0.000001 0.000001 0.000002 -0.000000 0.000001 0.000001 -0.000001 0.000001 0.000002 -0.000000 -0.000003 0.000001 -0.000000 -0.000003 0.000001 -0.000000 -0.000003 0.000001 -0.000000 -0.000003 0.000001 -0.000000 -0.000003 0.000001 -0.000000 -0.000003 0.000001 -0.000000 -0.000003 0.000001 0.000000 -0.000001 -0.000000 -0.000000 0.000002 -0.000000 
